<mxfile host="app.diagrams.net" modified="2021-01-08T13:02:00.533Z" agent="5.0 (Windows NT 10.0; Win64; x64) AppleWebKit/537.36 (KHTML, like Gecko) Chrome/87.0.4280.141 Safari/537.36" etag="EgYyNE0wn-9aQXzILeUv" version="14.1.8" type="github">
  <diagram id="R7FwJfTbPoyLw3az7zBl" name="Page-1">
    <mxGraphModel dx="942" dy="557" grid="1" gridSize="10" guides="1" tooltips="1" connect="1" arrows="1" fold="1" page="1" pageScale="1" pageWidth="827" pageHeight="1169" math="0" shadow="0">
      <root>
        <mxCell id="0" />
        <mxCell id="1" parent="0" />
        <mxCell id="cRs8c_b-qVBuCvmsZwnL-1" value="" style="shape=image;html=1;verticalAlign=top;verticalLabelPosition=bottom;labelBackgroundColor=#ffffff;imageAspect=0;aspect=fixed;image=https://cdn1.iconfinder.com/data/icons/cryptocurrency-blockchain-fintech-free/32/Cryptocurrency_digital_contract-128.png" vertex="1" parent="1">
          <mxGeometry x="200" y="120" width="128" height="128" as="geometry" />
        </mxCell>
        <mxCell id="cRs8c_b-qVBuCvmsZwnL-2" value="" style="outlineConnect=0;fontColor=#232F3E;gradientColor=none;fillColor=#3334B9;strokeColor=none;dashed=0;verticalLabelPosition=bottom;verticalAlign=top;align=center;html=1;fontSize=12;fontStyle=0;aspect=fixed;pointerEvents=1;shape=mxgraph.aws4.rds_oracle_instance;" vertex="1" parent="1">
          <mxGeometry x="214" y="330" width="100" height="100" as="geometry" />
        </mxCell>
        <mxCell id="cRs8c_b-qVBuCvmsZwnL-3" value="" style="endArrow=classic;html=1;exitX=0.5;exitY=1;exitDx=0;exitDy=0;" edge="1" parent="1" source="cRs8c_b-qVBuCvmsZwnL-1" target="cRs8c_b-qVBuCvmsZwnL-2">
          <mxGeometry width="50" height="50" relative="1" as="geometry">
            <mxPoint x="260" y="260" as="sourcePoint" />
            <mxPoint x="260" y="310" as="targetPoint" />
          </mxGeometry>
        </mxCell>
        <mxCell id="cRs8c_b-qVBuCvmsZwnL-4" value="" style="outlineConnect=0;dashed=0;verticalLabelPosition=bottom;verticalAlign=top;align=center;html=1;shape=mxgraph.aws3.event_time_based;fillColor=#759C3E;gradientColor=none;" vertex="1" parent="1">
          <mxGeometry x="470" y="338.75" width="63" height="82.5" as="geometry" />
        </mxCell>
        <mxCell id="cRs8c_b-qVBuCvmsZwnL-6" value="&lt;font style=&quot;font-size: 20px&quot;&gt;Real World Event&lt;/font&gt;" style="text;html=1;align=center;verticalAlign=middle;resizable=0;points=[];autosize=1;" vertex="1" parent="1">
          <mxGeometry x="405" y="290" width="170" height="20" as="geometry" />
        </mxCell>
        <mxCell id="cRs8c_b-qVBuCvmsZwnL-8" value="&lt;font&gt;&lt;font style=&quot;font-size: 20px&quot;&gt;Oraclize&lt;/font&gt;&lt;br&gt;&lt;span style=&quot;font-size: 20px&quot;&gt;Smart contract&lt;/span&gt;&lt;/font&gt;" style="text;html=1;align=center;verticalAlign=middle;resizable=0;points=[];autosize=1;" vertex="1" parent="1">
          <mxGeometry x="189" y="250" width="150" height="40" as="geometry" />
        </mxCell>
        <mxCell id="cRs8c_b-qVBuCvmsZwnL-9" value="" style="endArrow=classic;html=1;" edge="1" parent="1">
          <mxGeometry width="50" height="50" relative="1" as="geometry">
            <mxPoint x="330" y="350" as="sourcePoint" />
            <mxPoint x="470" y="350" as="targetPoint" />
          </mxGeometry>
        </mxCell>
        <mxCell id="cRs8c_b-qVBuCvmsZwnL-10" value="" style="endArrow=classic;html=1;" edge="1" parent="1">
          <mxGeometry width="50" height="50" relative="1" as="geometry">
            <mxPoint x="450" y="400" as="sourcePoint" />
            <mxPoint x="330" y="400" as="targetPoint" />
          </mxGeometry>
        </mxCell>
        <mxCell id="cRs8c_b-qVBuCvmsZwnL-11" value="" style="endArrow=classic;html=1;" edge="1" parent="1">
          <mxGeometry width="50" height="50" relative="1" as="geometry">
            <mxPoint x="630" y="380" as="sourcePoint" />
            <mxPoint x="550" y="380" as="targetPoint" />
          </mxGeometry>
        </mxCell>
        <mxCell id="cRs8c_b-qVBuCvmsZwnL-13" value="" style="shape=datastore;whiteSpace=wrap;html=1;" vertex="1" parent="1">
          <mxGeometry x="640" y="350" width="60" height="60" as="geometry" />
        </mxCell>
        <mxCell id="cRs8c_b-qVBuCvmsZwnL-14" value="&lt;font style=&quot;font-size: 20px&quot;&gt;Data&lt;/font&gt;" style="text;html=1;align=center;verticalAlign=middle;resizable=0;points=[];autosize=1;" vertex="1" parent="1">
          <mxGeometry x="640" y="310" width="60" height="20" as="geometry" />
        </mxCell>
      </root>
    </mxGraphModel>
  </diagram>
</mxfile>
